Coordinates
version=1
nRows=17
nColumns=36
inDegrees=yes

Units are S.I. units (second, meters, Newtons, ...)
If the header above contains a line with 'inDegrees', this indicates whether rotational values are in degrees (yes) or radians (no).

endheader
time	pelvis_tilt	pelvis_list	pelvis_rotation	pelvis_tx	pelvis_ty	pelvis_tz	hip_flexion_r	hip_adduction_r	hip_rotation_r	knee_angle_r	knee_angle_r_beta	ankle_angle_r	subtalar_angle_r	mtp_angle_r	hip_flexion_l	hip_adduction_l	hip_rotation_l	knee_angle_l	knee_angle_l_beta	ankle_angle_l	subtalar_angle_l	mtp_angle_l	lumbar_extension	lumbar_bending	lumbar_rotation	arm_flex_r	arm_add_r	arm_rot_r	elbow_flex_r	pro_sup_r	arm_flex_l	arm_add_l	arm_rot_l	elbow_flex_l	pro_sup_l
      4.66666670	     12.75057061	     -8.34034807	      5.90326566	     -0.12418098	      0.99091946	      0.10015978	     18.46686193	     -0.47125866	    -16.18422815	      6.72660697	      0.11740144	     -4.42430186	      4.13514372	     -7.49999987	    -10.44827837	     -3.89961887	     -2.13303515	      2.03502752	      0.03551793	      4.12661682	      3.70305385	     -7.49999987	     -6.08729319	     -4.17626951	      2.93845615	     41.24885497	      8.71278659	     60.25581455	    117.38370942	     85.46769074	     48.26478965	      0.85345949	     63.00157312	    122.96517795	     70.90798955
      4.68333330	     12.94106959	     -8.25512641	      5.71439657	     -0.12250751	      0.98808357	      0.10034807	     18.74561785	     -0.44951232	    -15.96140744	      6.76510682	      0.11807339	     -4.12185903	      4.11056888	     -7.49999987	    -10.81958495	     -3.78048962	     -2.42742495	      1.75060772	      0.03055387	      3.69772991	      3.64740010	     -7.49999987	     -6.09756677	     -4.24004347	      2.77917806	     41.40696392	      8.88424906	     60.19750537	    117.95999289	     85.54433937	     48.40098053	      0.52218236	     62.71545687	    122.79240732	     70.94662001
      4.70000000	     13.23488733	     -8.01775051	      5.60000990	     -0.12417055	      0.99195811	      0.09985200	     18.87836749	     -0.54479512	    -15.81916036	      6.76159634	      0.11801212	     -3.82622922	      4.25820246	     -7.49999987	    -11.25252968	     -3.51742222	     -2.46967778	      1.44468115	      0.02521444	      2.69537433	      3.40145869	     -7.49999987	     -6.27710681	     -4.49069415	      2.83094093	     41.59404245	      9.07156419	     60.67914497	    119.23469021	     85.82365829	     48.32173827	      0.55654195	     62.43741051	    122.91531633	     71.17761711
      4.71666670	     13.42257596	     -7.78506322	      5.53665174	     -0.12275845	      0.99094683	      0.09969004	     18.99758119	     -0.62721281	    -15.82075128	      6.51230863	      0.11366123	     -3.51604833	      4.29351363	     -7.49999987	    -11.54866004	     -3.26955358	     -2.42850350	      1.22718516	      0.02141842	      2.19483789	      3.32513752	     -7.49999987	     -6.32365969	     -4.72886076	      2.65444537	     41.67434746	      9.49129786	     61.33353604	    120.33844097	     86.00668761	     48.31945466	      0.45208345	     62.33925782	    122.82076352	     71.31157627
      4.73333330	     13.79677467	     -7.58687348	      5.52069111	     -0.12236179	      0.99060090	      0.09949860	     18.85848221	     -0.65309417	    -15.85163667	      6.30503563	      0.11004363	     -3.27896649	      4.35744243	     -7.49999987	    -12.05432215	     -3.05117962	     -1.74193264	      1.02279850	      0.01785120	      1.30656768	      2.14554919	     -7.49999987	     -6.64300514	     -4.90059732	      2.49547673	     41.92875316	      9.76480696	     62.16770076	    121.37766566	     83.88419399	     48.41113770	      0.40537416	     62.25159016	    122.76405063	     70.74014476
      4.75000000	     13.97477675	     -7.50871465	      5.57012693	     -0.12257058	      0.98954070	      0.09948824	     18.95059589	     -0.70816790	    -15.89511030	      6.58933297	      0.11500556	     -2.46812858	      4.72645093	     -7.49999987	    -12.14201936	     -3.00050829	     -2.06045560	      1.34468124	      0.02346912	      1.93076831	      2.67328104	     -7.49999987	     -6.69477816	     -4.77729841	      2.47648575	     41.92921745	      9.89966253	     62.44912703	    121.38839944	     88.37811526	     48.40139647	      0.59432023	     62.30282686	    122.71812268	     73.18522041
      4.76666670	     14.16358083	     -7.40291934	      5.67097742	     -0.11700223	      0.98892331	      0.09916313	     18.72691072	     -0.73623333	    -15.61657856	      6.56463205	      0.11457444	     -1.97295256	      4.65987900	     -7.49999987	    -12.38384629	     -2.91607213	     -2.02540114	      1.74345900	      0.03042910	      2.03079309	      2.60702698	     -7.49999987	     -6.65825168	     -4.72149223	      2.46946100	     41.60912432	      9.88749723	     62.72236562	    121.24154916	     88.39811446	     48.19937909	      0.70059293	     62.53761714	    122.67804816	     73.18621087
      4.78333330	     14.33519280	     -7.25598032	      5.83579526	     -0.12028292	      0.99197115	      0.09800907	     18.61152905	     -0.82876403	    -15.51871040	      6.47527449	      0.11301486	     -1.82996598	      4.68094892	     -7.49999987	    -12.46966550	     -2.76767016	     -2.12741539	      2.09320427	      0.03653331	      1.89331078	      2.57712944	     -7.49999987	     -6.62785720	     -4.63023432	      2.34587024	     41.31023968	      9.74996056	     62.91641964	    120.93668626	     88.41365764	     48.17611116	      0.84324886	     62.74420903	    122.71452875	     73.17953224
      4.80000000	     14.58513615	     -7.01214142	      5.81971287	     -0.12129660	      0.98951511	      0.09815973	     18.57644903	     -0.98162506	    -15.60319720	      6.32932423	      0.11046755	     -1.72216757	      4.40012392	     -7.49999987	    -12.62635042	     -2.49207116	     -2.40547116	      2.29418881	      0.04004115	      1.82989058	      2.60499382	     -7.49999987	     -6.79049442	     -4.61532116	      2.31723433	     41.42756053	      9.83691589	     63.21288346	    120.18532504	     87.78054141	     48.50928891	      0.76109385	     63.36533543	    122.98302373	     71.91424793
      4.81666670	     14.65124199	     -6.73544974	      5.90929125	     -0.12022740	      0.98914600	      0.09745326	     18.76440380	     -1.17015526	    -15.88967087	      6.35495121	      0.11091482	     -1.48240278	      4.72215197	     -7.49999987	    -12.60978299	     -2.18699163	     -2.38327243	      2.53894482	      0.04431295	      1.46952547	      2.24517456	     -7.49999987	     -6.77402060	     -4.72566853	      2.19086064	     41.31355126	      9.78960893	     63.32969451	    119.77354714	     87.43013956	     48.63557728	      0.71732442	     63.65430606	    123.05775372	     71.44071907
      4.83333330	     14.69325521	     -6.57490686	      5.78611509	     -0.11653482	      0.98950041	      0.09797189	     18.78361759	     -1.10356155	    -15.78806167	      6.00690707	      0.10484031	     -1.25720982	      4.71094556	     -7.49999987	    -12.67473724	     -1.98325590	     -2.55630638	      2.83640981	      0.04950469	      1.80201293	      2.18064691	     -7.49999987	     -6.75592082	     -4.73932575	      2.29014384	     41.13885474	      9.80153215	     63.55260143	    119.73739734	     87.52850000	     48.64150924	      0.68990452	     63.80374496	    123.05761725	     71.47447065
      4.85000000	     14.80298209	     -6.49266156	      5.60320161	     -0.11486419	      0.99040408	      0.09715230	     18.54211028	     -0.88436689	    -15.67817440	      5.51190411	      0.09620087	     -1.08571822	      4.91194514	     -7.49999987	    -12.88230243	     -1.86801289	     -2.82051174	      2.96933097	      0.05182460	      2.39643875	      2.35278739	     -7.49999987	     -6.77315706	     -4.73499192	      2.26493429	     40.86422491	      9.74369273	     63.72164036	    119.83789232	     86.26772396	     48.56570244	      0.63448988	     63.97689358	    122.99829043	     70.77699287
      4.86666670	     14.91779331	     -6.40299886	      5.47402797	     -0.11813303	      0.99110208	      0.09585291	     18.54493484	     -0.83511381	    -15.75717650	      5.47369541	      0.09553401	     -1.16307159	      5.02097707	     -7.49999987	    -12.95388382	     -1.70331348	     -3.29525593	      3.15322420	      0.05503414	      2.09061007	      2.50215549	     -7.49999987	     -6.77229764	     -4.59881245	      2.26881776	     40.61371950	      9.32144295	     62.91505743	    119.57975231	     86.00546441	     48.51056486	      0.62417183	     63.95045008	    122.97644349	     70.62666030
      4.88333330	     14.53395381	     -6.32728936	      5.22015298	     -0.11682129	      0.98966955	      0.09479578	     19.09712560	     -0.85743500	    -15.40661204	      5.80408579	      0.10130041	     -1.19846031	      4.99145394	     -7.49999987	    -12.70052824	     -1.44505777	     -3.28650091	      2.81630000	      0.04915371	      1.33594196	      2.52799995	     -7.49999987	     -5.96088214	     -4.60181091	      2.03353078	     40.08642962	      9.03807246	     62.43610445	    119.13816264	     84.93639099	     47.94302646	      0.37043636	     63.86517510	    122.67465463	     70.08011309
      4.90000000	     14.98032490	     -6.23633801	      5.04387598	     -0.11732262	      0.98927504	      0.09496268	     18.71315601	     -0.78538257	    -15.47027146	      5.97903016	      0.10435376	     -0.69976962	      5.37059892	     -7.49999987	    -13.34245564	     -1.28668946	     -3.80119022	      2.44372324	      0.04265102	     -0.55227542	      2.16111407	     -7.49999987	     -6.51571719	     -4.49620506	      1.89642325	     40.29344370	      8.93585404	     62.01777952	    119.31703737	     84.39697573	     48.20260387	      0.30261824	     63.79316838	    123.04609144	     69.90355704
      4.91666670	     14.99544622	     -6.19537348	      4.99610776	     -0.11691889	      0.99163581	      0.09467903	     18.73285011	     -0.78918546	    -15.40313162	      6.23164118	      0.10876266	     -0.14863276	      5.72908418	     -7.49999987	    -13.37052848	     -1.23989074	     -3.79213836	      2.49610663	      0.04356528	     -0.27324744	      2.31741879	     -7.49999987	     -6.37316221	     -4.43624709	      1.79417552	     40.14930883	      8.81877184	     61.36562201	    119.08932306	     88.22458101	     48.05267660	      0.33135003	     63.72696514	    122.96072613	     72.10200768
      4.93333330	     15.01726950	     -6.13373011	      4.84441847	     -0.11663781	      0.99090242	      0.09464187	     18.72473442	     -0.76853280	    -15.09324922	      6.37395139	      0.11124644	      0.28296064	      5.73239254	     -7.49999987	    -13.29953901	     -1.16991535	     -4.15386785	      2.65993780	      0.04642467	      0.37798612	      2.67764177	     -7.49999987	     -6.27117829	     -4.43551198	      1.76275724	     40.18798942	      8.88913260	     61.39379020	    119.13024224	     87.40711834	     47.95515865	      0.31280255	     63.79255894	    123.01167142	     72.01747278
